<svg xmlns="http://www.w3.org/2000/svg" version="1.1" xmlns:xlink="http://www.w3.org/1999/xlink" xmlns:svgjs="http://svgjs.dev/svgjs" width="1000" height="1000" viewBox="0 0 1000 1000"><rect width="1000" height="1000" fill="#000000"></rect><g transform="matrix(0.7,0,0,0.7,149.5757814086673,383.70071673433085)"><svg viewBox="0 0 396 132" data-background-color="#ffffff" preserveAspectRatio="xMidYMid meet" height="333" width="1000" xmlns="http://www.w3.org/2000/svg" xmlns:xlink="http://www.w3.org/1999/xlink"><defs></defs><g id="tight-bounds" transform="matrix(1,0,0,1,0.23998658321559674,-0.14197601429287943)"><svg viewBox="0 0 395.5199999999999 132.28395097532982" height="132.28395097532982" width="395.5199999999999"><g><svg viewBox="0 0 395.52000000000004 132.28395097532984" height="132.28395097532982" width="395.5199999999999"><g transform="matrix(1,0,0,1,0,81.75678867166494)"><svg viewBox="0 0 395.52000000000004 50.52716230366492" height="50.52716230366492" width="395.52000000000004"><g><svg viewBox="0 0 395.52000000000004 50.52716230366492" height="50.52716230366492" width="395.52000000000004"><g><svg viewBox="0 0 395.52000000000004 50.52716230366492" height="50.52716230366492" width="395.52000000000004"><g transform="matrix(1,0,0,1,0,0)"><svg width="395.52000000000004" viewBox="1.4500000476837158 -35.79999923706055 286.47998046875 36.599998474121094" height="50.52716230366492" data-palette-color="#000000"><path d="M26-9.6L26-18.45 36.25-18.45 36.25-3.65Q33.15-1.5 29.05-0.35 24.95 0.8 21 0.8L21 0.8Q15.4 0.8 10.95-1.53 6.5-3.85 3.98-8.03 1.45-12.2 1.45-17.5L1.45-17.5Q1.45-22.8 3.98-26.98 6.5-31.15 11.03-33.48 15.55-35.8 21.25-35.8L21.25-35.8Q26.4-35.8 30.48-34.08 34.55-32.35 37.25-29.05L37.25-29.05 29.7-22.4Q26.4-26.25 21.85-26.25L21.85-26.25Q17.95-26.25 15.65-23.9 13.35-21.55 13.35-17.5L13.35-17.5Q13.35-13.55 15.63-11.15 17.9-8.75 21.7-8.75L21.7-8.75Q23.95-8.75 26-9.6L26-9.6ZM52.9-8.9L70.4-8.9 70.4 0 41.3 0 41.3-35 69.75-35 69.75-26.1 52.9-26.1 52.9-22 67.7-22 67.7-13.5 52.9-13.5 52.9-8.9ZM95.89 0L89.94-8.8 86.75-8.8 86.75 0 74.94 0 74.94-35 91.8-35Q96.64-35 100.25-33.4 103.84-31.8 105.8-28.8 107.75-25.8 107.75-21.8L107.75-21.8Q107.75-18.05 106.05-15.25 104.34-12.45 101.14-10.8L101.14-10.8 108.5 0 95.89 0ZM95.84-21.8Q95.84-23.75 94.64-24.83 93.44-25.9 91.05-25.9L91.05-25.9 86.75-25.9 86.75-17.7 91.05-17.7Q93.44-17.7 94.64-18.78 95.84-19.85 95.84-21.8L95.84-21.8ZM154.19 0L143.44 0 143.34-15.95 135.74-3.15 130.54-3.15 122.94-15.4 122.94 0 112.19 0 112.19-35 121.89-35 133.29-16.35 144.39-35 154.09-35 154.19 0ZM159.89 0L159.89-35 171.69-35 171.69 0 159.89 0ZM195.49 0.8Q189.94 0.8 185.49-1.53 181.04-3.85 178.51-8.03 175.99-12.2 175.99-17.5L175.99-17.5Q175.99-22.8 178.51-26.98 181.04-31.15 185.49-33.48 189.94-35.8 195.49-35.8L195.49-35.8Q200.59-35.8 204.59-34 208.59-32.2 211.19-28.8L211.19-28.8 203.74-22.15Q200.49-26.25 196.09-26.25L196.09-26.25Q192.39-26.25 190.14-23.88 187.89-21.5 187.89-17.5L187.89-17.5Q187.89-13.5 190.14-11.13 192.39-8.75 196.09-8.75L196.09-8.75Q200.49-8.75 203.74-12.85L203.74-12.85 211.19-6.2Q208.59-2.8 204.59-1 200.59 0.8 195.49 0.8L195.49 0.8ZM240.29 0L237.94-6.1 224.64-6.1 222.29 0 210.29 0 225.59-35 237.19-35 252.49 0 240.29 0ZM227.89-14.6L234.69-14.6 231.29-23.4 227.89-14.6ZM275.33 0L269.38-8.8 266.18-8.8 266.18 0 254.38 0 254.38-35 271.23-35Q276.08-35 279.68-33.4 283.28-31.8 285.23-28.8 287.18-25.8 287.18-21.8L287.18-21.8Q287.18-18.05 285.48-15.25 283.78-12.45 280.58-10.8L280.58-10.8 287.93 0 275.33 0ZM275.28-21.8Q275.28-23.75 274.08-24.83 272.88-25.9 270.48-25.9L270.48-25.9 266.18-25.9 266.18-17.7 270.48-17.7Q272.88-17.7 274.08-18.78 275.28-19.85 275.28-21.8L275.28-21.8Z" opacity="1" transform="matrix(1,0,0,1,0,0)" fill="#ffffff" class="undefined-text-0" data-fill-palette-color="primary" id="text-0"></path></svg></g></svg></g></svg></g></svg></g><g transform="matrix(1,0,0,1,161.48004105583712,0)"><svg viewBox="0 0 72.55991788832581 69.82853830366493" height="69.82853830366493" width="72.55991788832581"><g><svg xmlns="http://www.w3.org/2000/svg" xmlns:xlink="http://www.w3.org/1999/xlink" version="1.1" x="0" y="0" viewBox="2.3690004348754883 4.054994106292725 95.97999572753906 92.36701202392578" enable-background="new 0 0 100 100" xml:space="preserve" height="69.82853830366493" width="72.55991788832581" class="icon-icon-0" data-fill-palette-color="accent" id="icon-0"><g fill="#000000" data-fill-palette-color="accent"><path d="M7.64 53.797c-0.161 3.22 3.638 6.621 8.485 7.597 4.847 0.976 8.907-0.844 9.068-4.062 0.161-3.22-3.638-6.62-8.486-7.597C11.861 48.758 7.801 50.577 7.64 53.797L7.64 53.797zM50.188 8.238C39.25 8.307 26.5 8.702 16.032 11.218c-0.929 0.177-1.038 1.155-1.038 1.155l-0.896 23.804c-0.077 4.128 4.638 6.004 36.09 6.104 31.451-0.1 36.166-1.977 36.09-6.104l-0.896-23.804c0 0-0.107-0.978-1.037-1.155C73.877 8.702 61.125 8.307 50.188 8.238L50.188 8.238zM92.735 53.797c-0.16-3.22-4.22-5.039-9.067-4.062-4.847 0.977-8.646 4.377-8.485 7.597 0.161 3.219 4.22 5.038 9.068 4.062C89.099 60.418 92.897 57.017 92.735 53.797L92.735 53.797zM50.359 87.624l-2.874-0.002c-10.683-0.043-21.162-0.246-29.878-0.89v4.863c0 2.667-2.161 4.827-4.827 4.827h-3.97c-2.666 0-4.827-2.16-4.827-4.827V81.441c-0.104-0.904-0.213-1.944-0.32-3.105-0.82-4.258-1.294-9.287-1.294-14.677 0-6.836 0.762-13.094 2.026-17.929 0.251-1.102 0.555-2.084 0.899-2.96 0.107-0.301 0.215-0.593 0.326-0.878l4.802-32.865c0 0 0.194-1.369 1.419-1.676 11.021-2.999 37.596-3.297 38.517-3.296 0.921-0.001 27.496 0.297 38.519 3.296 1.226 0.307 1.419 1.676 1.419 1.676L95.1 41.892c0.109 0.285 0.219 0.577 0.324 0.878 0.345 0.876 0.648 1.858 0.899 2.96 1.264 4.835 2.026 11.093 2.026 17.929 0 5.39-0.475 10.419-1.294 14.677-0.106 1.161-0.216 2.201-0.319 3.105v10.154c0 2.667-2.161 4.827-4.828 4.827h-3.969c-2.665 0-4.828-2.16-4.828-4.827v-4.863c-8.716 0.644-19.195 0.847-29.877 0.89L50.359 87.624 50.359 87.624z" fill="#ffffff" data-fill-palette-color="accent"></path></g></svg></g></svg></g><g></g></svg></g></svg><rect width="395.5199999999999" height="132.28395097532982" fill="none" stroke="none" visibility="hidden"></rect></g></svg></g></svg>